<svg xmlns="http://www.w3.org/2000/svg" xmlns:xlink="http://www.w3.org/1999/xlink" width="1000" zoomAndPan="magnify" viewBox="0 0 750 225" height="300" preserveAspectRatio="xMidYMid meet" version="1.0"><defs><clipPath id="1ae475ece8"><path d="M 0 47.15625 L 131 47.15625 L 131 177.65625 L 0 177.65625 Z M 0 47.15625 " clip-rule="nonzero"/></clipPath><clipPath id="e553bf88e9"><path d="M 88 47.15625 L 220 47.15625 L 220 177.65625 L 88 177.65625 Z M 88 47.15625 " clip-rule="nonzero"/></clipPath><clipPath id="41adefad19"><path d="M 177 47.15625 L 308 47.15625 L 308 177.65625 L 177 177.65625 Z M 177 47.15625 " clip-rule="nonzero"/></clipPath><clipPath id="91fa6cfb88"><path d="M 265 47.15625 L 396 47.15625 L 396 177.65625 L 265 177.65625 Z M 265 47.15625 " clip-rule="nonzero"/></clipPath><clipPath id="57309e5747"><path d="M 354 47.15625 L 485 47.15625 L 485 177.65625 L 354 177.65625 Z M 354 47.15625 " clip-rule="nonzero"/></clipPath><clipPath id="12d857b944"><path d="M 442 47.15625 L 573 47.15625 L 573 177.65625 L 442 177.65625 Z M 442 47.15625 " clip-rule="nonzero"/></clipPath><clipPath id="72ee92a52b"><path d="M 530 47.15625 L 662 47.15625 L 662 177.65625 L 530 177.65625 Z M 530 47.15625 " clip-rule="nonzero"/></clipPath><clipPath id="733d77e438"><path d="M 619 47.15625 L 750 47.15625 L 750 177.65625 L 619 177.65625 Z M 619 47.15625 " clip-rule="nonzero"/></clipPath></defs><g clip-path="url(#1ae475ece8)"><path fill="#ffffff" d="M 130.585938 52.875 L 5.757812 177.699219 L 0.277344 172.222656 L 125.109375 47.398438 L 130.585938 52.875 " fill-opacity="1" fill-rule="nonzero"/></g><g clip-path="url(#e553bf88e9)"><path fill="#ffffff" d="M 219.042969 52.875 L 94.207031 177.699219 L 88.730469 172.222656 L 213.566406 47.398438 L 219.042969 52.875 " fill-opacity="1" fill-rule="nonzero"/></g><g clip-path="url(#41adefad19)"><path fill="#ffffff" d="M 307.480469 52.875 L 182.65625 177.699219 L 177.175781 172.222656 L 302.003906 47.398438 L 307.480469 52.875 " fill-opacity="1" fill-rule="nonzero"/></g><g clip-path="url(#91fa6cfb88)"><path fill="#ffffff" d="M 395.933594 52.875 L 271.105469 177.699219 L 265.628906 172.222656 L 390.449219 47.398438 L 395.933594 52.875 " fill-opacity="1" fill-rule="nonzero"/></g><g clip-path="url(#57309e5747)"><path fill="#ffffff" d="M 484.386719 52.875 L 359.554688 177.699219 L 354.070312 172.222656 L 478.910156 47.398438 L 484.386719 52.875 " fill-opacity="1" fill-rule="nonzero"/></g><g clip-path="url(#12d857b944)"><path fill="#ffffff" d="M 572.828125 52.875 L 448 177.699219 L 442.523438 172.222656 L 567.347656 47.398438 L 572.828125 52.875 " fill-opacity="1" fill-rule="nonzero"/></g><g clip-path="url(#72ee92a52b)"><path fill="#ffffff" d="M 661.28125 52.875 L 536.449219 177.699219 L 530.972656 172.222656 L 655.804688 47.398438 L 661.28125 52.875 " fill-opacity="1" fill-rule="nonzero"/></g><g clip-path="url(#733d77e438)"><path fill="#ffffff" d="M 749.722656 52.875 L 624.894531 177.699219 L 619.417969 172.222656 L 744.242188 47.398438 L 749.722656 52.875 " fill-opacity="1" fill-rule="nonzero"/></g></svg>